<svg id="visual" viewBox="0 0 960 540" width="960" height="540" xmlns="http://www.w3.org/2000/svg" xmlns:xlink="http://www.w3.org/1999/xlink" version="1.1"><rect x="0" y="0" width="960" height="540" fill="#121212"></rect><path d="M0 334L17.8 327.8C35.7 321.7 71.3 309.3 106.8 304.5C142.3 299.7 177.7 302.3 213.2 304.3C248.7 306.3 284.3 307.7 320 319.8C355.7 332 391.3 355 426.8 364.7C462.3 374.3 497.7 370.7 533.2 354.3C568.7 338 604.3 309 640 318C675.7 327 711.3 374 746.8 395.5C782.3 417 817.7 413 853.2 398.3C888.7 383.7 924.3 358.3 942.2 345.7L960 333L960 0L942.2 0C924.3 0 888.7 0 853.2 0C817.7 0 782.3 0 746.8 0C711.3 0 675.7 0 640 0C604.3 0 568.7 0 533.2 0C497.7 0 462.3 0 426.8 0C391.3 0 355.7 0 320 0C284.3 0 248.7 0 213.2 0C177.7 0 142.3 0 106.8 0C71.3 0 35.7 0 17.8 0L0 0Z" fill="#f4ebd0"></path><path d="M0 302L17.8 296.3C35.7 290.7 71.3 279.3 106.8 261C142.3 242.7 177.7 217.3 213.2 221.7C248.7 226 284.3 260 320 265.8C355.7 271.7 391.3 249.3 426.8 251.2C462.3 253 497.7 279 533.2 271.8C568.7 264.7 604.3 224.3 640 208.2C675.7 192 711.3 200 746.8 210.5C782.3 221 817.7 234 853.2 250C888.7 266 924.3 285 942.2 294.5L960 304L960 0L942.2 0C924.3 0 888.7 0 853.2 0C817.7 0 782.3 0 746.8 0C711.3 0 675.7 0 640 0C604.3 0 568.7 0 533.2 0C497.7 0 462.3 0 426.8 0C391.3 0 355.7 0 320 0C284.3 0 248.7 0 213.2 0C177.7 0 142.3 0 106.8 0C71.3 0 35.7 0 17.8 0L0 0Z" fill="#f1d6bd"></path><path d="M0 153L17.8 153.8C35.7 154.7 71.3 156.3 106.8 152.2C142.3 148 177.7 138 213.2 126.5C248.7 115 284.3 102 320 107.7C355.7 113.3 391.3 137.7 426.8 151.5C462.3 165.3 497.7 168.7 533.2 164.5C568.7 160.3 604.3 148.7 640 141.3C675.7 134 711.3 131 746.8 126.7C782.3 122.3 817.7 116.7 853.2 124.2C888.7 131.7 924.3 152.3 942.2 162.7L960 173L960 0L942.2 0C924.3 0 888.7 0 853.2 0C817.7 0 782.3 0 746.8 0C711.3 0 675.7 0 640 0C604.3 0 568.7 0 533.2 0C497.7 0 462.3 0 426.8 0C391.3 0 355.7 0 320 0C284.3 0 248.7 0 213.2 0C177.7 0 142.3 0 106.8 0C71.3 0 35.7 0 17.8 0L0 0Z" fill="#edc1b1"></path></svg>