<svg id="visual" viewBox="0 0 2000 275" width="2000" height="275" xmlns="http://www.w3.org/2000/svg" xmlns:xlink="http://www.w3.org/1999/xlink" version="1.1"><path d="M0 179L27.8 180.2C55.7 181.3 111.3 183.7 166.8 181.5C222.3 179.3 277.7 172.7 333.2 172.5C388.7 172.3 444.3 178.7 500 181.5C555.7 184.3 611.3 183.7 666.8 190C722.3 196.3 777.7 209.7 833.2 211.3C888.7 213 944.3 203 1000 200.5C1055.7 198 1111.3 203 1166.8 205.7C1222.3 208.3 1277.7 208.7 1333.2 205.3C1388.7 202 1444.3 195 1500 194.7C1555.7 194.3 1611.3 200.7 1666.8 197.5C1722.3 194.3 1777.7 181.7 1833.2 182.3C1888.7 183 1944.3 197 1972.2 204L2000 211L2000 0L1972.2 0C1944.3 0 1888.7 0 1833.2 0C1777.7 0 1722.3 0 1666.8 0C1611.3 0 1555.7 0 1500 0C1444.3 0 1388.7 0 1333.2 0C1277.7 0 1222.3 0 1166.8 0C1111.3 0 1055.7 0 1000 0C944.3 0 888.7 0 833.2 0C777.7 0 722.3 0 666.8 0C611.3 0 555.7 0 500 0C444.3 0 388.7 0 333.2 0C277.7 0 222.3 0 166.8 0C111.3 0 55.7 0 27.8 0L0 0Z" fill="#fff7db"></path><path d="M0 133L27.8 134.8C55.7 136.7 111.3 140.3 166.8 144.3C222.3 148.3 277.7 152.7 333.2 153C388.7 153.3 444.3 149.7 500 152C555.7 154.3 611.3 162.7 666.8 160.5C722.3 158.3 777.7 145.7 833.2 147.5C888.7 149.3 944.3 165.7 1000 167.5C1055.7 169.3 1111.3 156.7 1166.8 149C1222.3 141.3 1277.7 138.7 1333.2 143.7C1388.7 148.7 1444.3 161.3 1500 164.5C1555.7 167.7 1611.3 161.3 1666.8 156C1722.3 150.7 1777.7 146.3 1833.2 143.3C1888.7 140.3 1944.3 138.7 1972.2 137.8L2000 137L2000 0L1972.2 0C1944.3 0 1888.7 0 1833.2 0C1777.7 0 1722.3 0 1666.8 0C1611.3 0 1555.7 0 1500 0C1444.3 0 1388.7 0 1333.2 0C1277.7 0 1222.3 0 1166.8 0C1111.3 0 1055.7 0 1000 0C944.3 0 888.7 0 833.2 0C777.7 0 722.3 0 666.8 0C611.3 0 555.7 0 500 0C444.3 0 388.7 0 333.2 0C277.7 0 222.3 0 166.8 0C111.3 0 55.7 0 27.8 0L0 0Z" fill="#e9ddb6"></path><path d="M0 120L27.8 119.8C55.7 119.7 111.3 119.3 166.8 117.5C222.3 115.7 277.7 112.3 333.2 108.5C388.7 104.7 444.3 100.3 500 105.2C555.7 110 611.3 124 666.8 123.5C722.3 123 777.7 108 833.2 102.7C888.7 97.3 944.3 101.7 1000 101.7C1055.7 101.7 1111.3 97.3 1166.8 100.3C1222.3 103.3 1277.7 113.7 1333.2 114.5C1388.7 115.3 1444.3 106.7 1500 109.8C1555.7 113 1611.3 128 1666.8 127.2C1722.3 126.3 1777.7 109.7 1833.2 105.2C1888.7 100.7 1944.3 108.3 1972.2 112.2L2000 116L2000 0L1972.2 0C1944.3 0 1888.7 0 1833.2 0C1777.7 0 1722.3 0 1666.8 0C1611.3 0 1555.7 0 1500 0C1444.3 0 1388.7 0 1333.2 0C1277.7 0 1222.3 0 1166.8 0C1111.3 0 1055.7 0 1000 0C944.3 0 888.7 0 833.2 0C777.7 0 722.3 0 666.8 0C611.3 0 555.7 0 500 0C444.3 0 388.7 0 333.2 0C277.7 0 222.3 0 166.8 0C111.3 0 55.7 0 27.8 0L0 0Z" fill="#d3c492"></path><path d="M0 89L27.8 87.3C55.7 85.7 111.3 82.3 166.8 79.8C222.3 77.3 277.7 75.7 333.2 79.7C388.7 83.7 444.3 93.3 500 98.2C555.7 103 611.3 103 666.8 99.3C722.3 95.7 777.7 88.3 833.2 86.2C888.7 84 944.3 87 1000 86.7C1055.7 86.3 1111.3 82.7 1166.8 80.2C1222.3 77.7 1277.7 76.3 1333.2 80.3C1388.7 84.3 1444.3 93.7 1500 93.5C1555.7 93.3 1611.3 83.7 1666.8 82.2C1722.3 80.7 1777.7 87.3 1833.2 90C1888.7 92.7 1944.3 91.3 1972.2 90.7L2000 90L2000 0L1972.2 0C1944.3 0 1888.7 0 1833.2 0C1777.7 0 1722.3 0 1666.8 0C1611.3 0 1555.7 0 1500 0C1444.3 0 1388.7 0 1333.2 0C1277.7 0 1222.3 0 1166.8 0C1111.3 0 1055.7 0 1000 0C944.3 0 888.7 0 833.2 0C777.7 0 722.3 0 666.8 0C611.3 0 555.7 0 500 0C444.3 0 388.7 0 333.2 0C277.7 0 222.3 0 166.8 0C111.3 0 55.7 0 27.8 0L0 0Z" fill="#bdab6f"></path><path d="M0 38L27.8 38.8C55.7 39.7 111.3 41.3 166.8 40.3C222.3 39.3 277.7 35.7 333.2 33C388.7 30.3 444.3 28.7 500 27.8C555.7 27 611.3 27 666.8 29C722.3 31 777.7 35 833.2 40.8C888.7 46.7 944.3 54.3 1000 53.2C1055.7 52 1111.3 42 1166.8 40.5C1222.3 39 1277.7 46 1333.2 49C1388.7 52 1444.3 51 1500 47.8C1555.7 44.7 1611.3 39.3 1666.8 35.8C1722.3 32.3 1777.7 30.7 1833.2 33.8C1888.7 37 1944.3 45 1972.2 49L2000 53L2000 0L1972.2 0C1944.3 0 1888.7 0 1833.2 0C1777.7 0 1722.3 0 1666.8 0C1611.3 0 1555.7 0 1500 0C1444.3 0 1388.7 0 1333.2 0C1277.7 0 1222.3 0 1166.8 0C1111.3 0 1055.7 0 1000 0C944.3 0 888.7 0 833.2 0C777.7 0 722.3 0 666.8 0C611.3 0 555.7 0 500 0C444.3 0 388.7 0 333.2 0C277.7 0 222.3 0 166.8 0C111.3 0 55.7 0 27.8 0L0 0Z" fill="#a8934d"></path></svg>