<svg id="visual" viewBox="0 0 960 540" width="960" height="540" xmlns="http://www.w3.org/2000/svg" xmlns:xlink="http://www.w3.org/1999/xlink" version="1.1"><rect x="0" y="0" width="960" height="540" fill="#121212"></rect><path d="M0 143L17.8 144.3C35.7 145.7 71.3 148.3 106.8 153.5C142.3 158.7 177.7 166.3 213.2 162.8C248.7 159.3 284.3 144.7 320 143.5C355.7 142.3 391.3 154.7 426.8 158.2C462.3 161.7 497.7 156.3 533.2 152.8C568.7 149.3 604.3 147.7 640 143.3C675.7 139 711.3 132 746.8 129.2C782.3 126.3 817.7 127.7 853.2 131.8C888.7 136 924.3 143 942.2 146.5L960 150L960 0L942.2 0C924.3 0 888.7 0 853.2 0C817.7 0 782.3 0 746.8 0C711.3 0 675.7 0 640 0C604.3 0 568.7 0 533.2 0C497.7 0 462.3 0 426.8 0C391.3 0 355.7 0 320 0C284.3 0 248.7 0 213.2 0C177.7 0 142.3 0 106.8 0C71.3 0 35.7 0 17.8 0L0 0Z" fill="#f4ebd0"></path><path d="M0 107L17.8 105.7C35.7 104.3 71.3 101.7 106.8 106.2C142.3 110.7 177.7 122.3 213.2 126C248.7 129.7 284.3 125.3 320 119.8C355.7 114.3 391.3 107.7 426.8 110.3C462.3 113 497.7 125 533.2 129.8C568.7 134.7 604.3 132.3 640 126.3C675.7 120.3 711.3 110.7 746.8 108.2C782.3 105.7 817.7 110.3 853.2 112.2C888.7 114 924.3 113 942.2 112.5L960 112L960 0L942.2 0C924.3 0 888.7 0 853.2 0C817.7 0 782.3 0 746.8 0C711.3 0 675.7 0 640 0C604.3 0 568.7 0 533.2 0C497.7 0 462.3 0 426.8 0C391.3 0 355.7 0 320 0C284.3 0 248.7 0 213.2 0C177.7 0 142.3 0 106.8 0C71.3 0 35.7 0 17.8 0L0 0Z" fill="#f2e1c6"></path><path d="M0 89L17.8 88C35.7 87 71.3 85 106.8 85.2C142.3 85.3 177.7 87.7 213.2 89.7C248.7 91.7 284.3 93.3 320 94.5C355.7 95.7 391.3 96.3 426.8 96.2C462.3 96 497.7 95 533.2 97.3C568.7 99.7 604.3 105.3 640 103.7C675.7 102 711.3 93 746.8 91.2C782.3 89.3 817.7 94.7 853.2 93.5C888.7 92.3 924.3 84.7 942.2 80.8L960 77L960 0L942.2 0C924.3 0 888.7 0 853.2 0C817.7 0 782.3 0 746.8 0C711.3 0 675.7 0 640 0C604.3 0 568.7 0 533.2 0C497.7 0 462.3 0 426.8 0C391.3 0 355.7 0 320 0C284.3 0 248.7 0 213.2 0C177.7 0 142.3 0 106.8 0C71.3 0 35.7 0 17.8 0L0 0Z" fill="#f1d6bd"></path><path d="M0 66L17.8 63.3C35.7 60.7 71.3 55.3 106.8 53.8C142.3 52.3 177.7 54.7 213.2 56.8C248.7 59 284.3 61 320 60.5C355.7 60 391.3 57 426.8 59C462.3 61 497.7 68 533.2 67C568.7 66 604.3 57 640 57.5C675.7 58 711.3 68 746.8 72.8C782.3 77.7 817.7 77.3 853.2 73.5C888.7 69.7 924.3 62.3 942.2 58.7L960 55L960 0L942.2 0C924.3 0 888.7 0 853.2 0C817.7 0 782.3 0 746.8 0C711.3 0 675.7 0 640 0C604.3 0 568.7 0 533.2 0C497.7 0 462.3 0 426.8 0C391.3 0 355.7 0 320 0C284.3 0 248.7 0 213.2 0C177.7 0 142.3 0 106.8 0C71.3 0 35.7 0 17.8 0L0 0Z" fill="#efcbb6"></path><path d="M0 48L17.8 44.2C35.7 40.3 71.3 32.7 106.8 30.7C142.3 28.7 177.7 32.3 213.2 35.5C248.7 38.7 284.3 41.3 320 42.8C355.7 44.3 391.3 44.7 426.8 41.5C462.3 38.3 497.7 31.7 533.2 29.2C568.7 26.7 604.3 28.3 640 30.5C675.7 32.7 711.3 35.3 746.8 35.3C782.3 35.3 817.7 32.7 853.2 31.5C888.7 30.3 924.3 30.7 942.2 30.8L960 31L960 0L942.2 0C924.3 0 888.7 0 853.2 0C817.7 0 782.3 0 746.8 0C711.3 0 675.7 0 640 0C604.3 0 568.7 0 533.2 0C497.7 0 462.3 0 426.8 0C391.3 0 355.7 0 320 0C284.3 0 248.7 0 213.2 0C177.7 0 142.3 0 106.8 0C71.3 0 35.7 0 17.8 0L0 0Z" fill="#edc1b1"></path></svg>