<svg id="visual" viewBox="0 0 500 500" width="500" height="500" xmlns="http://www.w3.org/2000/svg" xmlns:xlink="http://www.w3.org/1999/xlink" version="1.1"><path d="M0 373L7 369.7C14 366.3 28 359.7 41.8 354C55.7 348.3 69.3 343.7 83.2 343C97 342.3 111 345.7 125 345.3C139 345 153 341 166.8 343.5C180.7 346 194.3 355 208.2 357.2C222 359.3 236 354.7 250 351.5C264 348.3 278 346.7 291.8 348.2C305.7 349.7 319.3 354.3 333.2 360C347 365.7 361 372.3 375 373.5C389 374.7 403 370.3 416.8 367.8C430.7 365.3 444.3 364.7 458.2 364.2C472 363.7 486 363.3 493 363.2L500 363L500 0L493 0C486 0 472 0 458.2 0C444.3 0 430.7 0 416.8 0C403 0 389 0 375 0C361 0 347 0 333.2 0C319.3 0 305.7 0 291.8 0C278 0 264 0 250 0C236 0 222 0 208.2 0C194.3 0 180.7 0 166.8 0C153 0 139 0 125 0C111 0 97 0 83.2 0C69.3 0 55.7 0 41.8 0C28 0 14 0 7 0L0 0Z" fill="#fff7db"></path><path d="M0 276L7 272.8C14 269.7 28 263.3 41.8 261.2C55.7 259 69.3 261 83.2 262.2C97 263.3 111 263.7 125 268.7C139 273.7 153 283.3 166.8 284.7C180.7 286 194.3 279 208.2 275.8C222 272.7 236 273.3 250 277.2C264 281 278 288 291.8 292.5C305.7 297 319.3 299 333.2 301.2C347 303.3 361 305.7 375 305.3C389 305 403 302 416.8 299.5C430.7 297 444.3 295 458.2 296.5C472 298 486 303 493 305.5L500 308L500 0L493 0C486 0 472 0 458.2 0C444.3 0 430.7 0 416.8 0C403 0 389 0 375 0C361 0 347 0 333.2 0C319.3 0 305.7 0 291.8 0C278 0 264 0 250 0C236 0 222 0 208.2 0C194.3 0 180.7 0 166.8 0C153 0 139 0 125 0C111 0 97 0 83.2 0C69.3 0 55.7 0 41.8 0C28 0 14 0 7 0L0 0Z" fill="#e9ddb6"></path><path d="M0 204L7 207.8C14 211.7 28 219.3 41.8 219.2C55.7 219 69.3 211 83.2 207.7C97 204.3 111 205.7 125 210.8C139 216 153 225 166.8 228.3C180.7 231.7 194.3 229.3 208.2 226.8C222 224.3 236 221.7 250 223.3C264 225 278 231 291.8 232.7C305.7 234.3 319.3 231.7 333.2 228.3C347 225 361 221 375 219.5C389 218 403 219 416.8 218.3C430.7 217.7 444.3 215.3 458.2 217.2C472 219 486 225 493 228L500 231L500 0L493 0C486 0 472 0 458.2 0C444.3 0 430.7 0 416.8 0C403 0 389 0 375 0C361 0 347 0 333.2 0C319.3 0 305.7 0 291.8 0C278 0 264 0 250 0C236 0 222 0 208.2 0C194.3 0 180.7 0 166.8 0C153 0 139 0 125 0C111 0 97 0 83.2 0C69.3 0 55.7 0 41.8 0C28 0 14 0 7 0L0 0Z" fill="#d3c492"></path><path d="M0 148L7 148.3C14 148.7 28 149.3 41.8 147.5C55.7 145.7 69.3 141.3 83.2 142.2C97 143 111 149 125 151C139 153 153 151 166.8 150.7C180.7 150.3 194.3 151.7 208.2 150.5C222 149.3 236 145.7 250 142.3C264 139 278 136 291.8 139.7C305.7 143.3 319.3 153.7 333.2 155C347 156.3 361 148.7 375 147.7C389 146.7 403 152.3 416.8 150.7C430.7 149 444.3 140 458.2 140.2C472 140.3 486 149.7 493 154.3L500 159L500 0L493 0C486 0 472 0 458.2 0C444.3 0 430.7 0 416.8 0C403 0 389 0 375 0C361 0 347 0 333.2 0C319.3 0 305.7 0 291.8 0C278 0 264 0 250 0C236 0 222 0 208.2 0C194.3 0 180.7 0 166.8 0C153 0 139 0 125 0C111 0 97 0 83.2 0C69.3 0 55.7 0 41.8 0C28 0 14 0 7 0L0 0Z" fill="#bdab6f"></path><path d="M0 74L7 73.3C14 72.7 28 71.3 41.8 70.8C55.7 70.3 69.3 70.7 83.2 71.5C97 72.3 111 73.7 125 73.2C139 72.7 153 70.3 166.8 70.3C180.7 70.3 194.3 72.7 208.2 75C222 77.3 236 79.7 250 83.3C264 87 278 92 291.8 93C305.7 94 319.3 91 333.2 89.7C347 88.3 361 88.7 375 85.2C389 81.7 403 74.3 416.8 72C430.7 69.7 444.3 72.3 458.2 77.2C472 82 486 89 493 92.5L500 96L500 0L493 0C486 0 472 0 458.2 0C444.3 0 430.7 0 416.8 0C403 0 389 0 375 0C361 0 347 0 333.2 0C319.3 0 305.7 0 291.8 0C278 0 264 0 250 0C236 0 222 0 208.2 0C194.3 0 180.7 0 166.8 0C153 0 139 0 125 0C111 0 97 0 83.2 0C69.3 0 55.7 0 41.8 0C28 0 14 0 7 0L0 0Z" fill="#a8934d"></path></svg>