<svg id="visual" viewBox="0 0 500 500" width="500" height="500" xmlns="http://www.w3.org/2000/svg" xmlns:xlink="http://www.w3.org/1999/xlink" version="1.1"><rect x="0" y="0" width="500" height="500" fill="#151F28"></rect><path d="M0 391L5.2 391.3C10.3 391.7 20.7 392.3 31.2 388C41.7 383.7 52.3 374.3 62.8 368.5C73.3 362.7 83.7 360.3 94 359.8C104.3 359.3 114.7 360.7 125 368.3C135.3 376 145.7 390 156.2 396.8C166.7 403.7 177.3 403.3 187.8 400.7C198.3 398 208.7 393 219 388.8C229.3 384.7 239.7 381.3 250 378.2C260.3 375 270.7 372 281.2 374.5C291.7 377 302.3 385 312.8 390.5C323.3 396 333.7 399 344 394.7C354.3 390.3 364.7 378.7 375 372.2C385.3 365.7 395.7 364.3 406.2 363.7C416.7 363 427.3 363 437.8 364.8C448.3 366.7 458.7 370.3 469 375.8C479.3 381.3 489.7 388.7 494.8 392.3L500 396L500 0L494.8 0C489.7 0 479.3 0 469 0C458.7 0 448.3 0 437.8 0C427.3 0 416.7 0 406.2 0C395.7 0 385.3 0 375 0C364.7 0 354.3 0 344 0C333.7 0 323.3 0 312.8 0C302.3 0 291.7 0 281.2 0C270.7 0 260.3 0 250 0C239.7 0 229.3 0 219 0C208.7 0 198.3 0 187.8 0C177.3 0 166.7 0 156.2 0C145.7 0 135.3 0 125 0C114.7 0 104.3 0 94 0C83.7 0 73.3 0 62.8 0C52.3 0 41.7 0 31.2 0C20.7 0 10.3 0 5.2 0L0 0Z" fill="#151f28"></path><path d="M0 337L5.2 335.2C10.3 333.3 20.7 329.7 31.2 324.3C41.7 319 52.3 312 62.8 314.5C73.3 317 83.7 329 94 332.3C104.3 335.7 114.7 330.3 125 328.2C135.3 326 145.7 327 156.2 324.2C166.7 321.3 177.3 314.7 187.8 312.3C198.3 310 208.7 312 219 318.8C229.3 325.7 239.7 337.3 250 338C260.3 338.7 270.7 328.3 281.2 324.3C291.7 320.3 302.3 322.7 312.8 327.5C323.3 332.3 333.7 339.7 344 337C354.3 334.3 364.7 321.7 375 318C385.3 314.3 395.7 319.7 406.2 324.8C416.7 330 427.3 335 437.8 332.7C448.3 330.3 458.7 320.7 469 315C479.3 309.3 489.7 307.7 494.8 306.8L500 306L500 0L494.8 0C489.7 0 479.3 0 469 0C458.7 0 448.3 0 437.8 0C427.3 0 416.7 0 406.2 0C395.7 0 385.3 0 375 0C364.7 0 354.3 0 344 0C333.7 0 323.3 0 312.8 0C302.3 0 291.7 0 281.2 0C270.7 0 260.3 0 250 0C239.7 0 229.3 0 219 0C208.7 0 198.3 0 187.8 0C177.3 0 166.7 0 156.2 0C145.7 0 135.3 0 125 0C114.7 0 104.3 0 94 0C83.7 0 73.3 0 62.8 0C52.3 0 41.7 0 31.2 0C20.7 0 10.3 0 5.2 0L0 0Z" fill="#07404f"></path><path d="M0 294L5.2 291.2C10.3 288.3 20.7 282.7 31.2 276.8C41.7 271 52.3 265 62.8 267.3C73.3 269.7 83.7 280.3 94 283.3C104.3 286.3 114.7 281.7 125 279.8C135.3 278 145.7 279 156.2 277.8C166.7 276.7 177.3 273.3 187.8 272.8C198.3 272.3 208.7 274.7 219 272.8C229.3 271 239.7 265 250 266.5C260.3 268 270.7 277 281.2 280.5C291.7 284 302.3 282 312.8 278.7C323.3 275.3 333.7 270.7 344 269.8C354.3 269 364.7 272 375 270.3C385.3 268.7 395.7 262.3 406.2 261.3C416.7 260.3 427.3 264.7 437.8 269.8C448.3 275 458.7 281 469 279.2C479.3 277.3 489.7 267.7 494.8 262.8L500 258L500 0L494.8 0C489.7 0 479.3 0 469 0C458.7 0 448.3 0 437.8 0C427.3 0 416.7 0 406.2 0C395.7 0 385.3 0 375 0C364.7 0 354.3 0 344 0C333.7 0 323.3 0 312.8 0C302.3 0 291.7 0 281.2 0C270.7 0 260.3 0 250 0C239.7 0 229.3 0 219 0C208.7 0 198.3 0 187.8 0C177.3 0 166.7 0 156.2 0C145.7 0 135.3 0 125 0C114.7 0 104.3 0 94 0C83.7 0 73.3 0 62.8 0C52.3 0 41.7 0 31.2 0C20.7 0 10.3 0 5.2 0L0 0Z" fill="#00656a"></path><path d="M0 235L5.2 230.2C10.3 225.3 20.7 215.7 31.2 210.5C41.7 205.3 52.3 204.7 62.8 207.3C73.3 210 83.7 216 94 221.5C104.3 227 114.7 232 125 233.2C135.3 234.3 145.7 231.7 156.2 226.5C166.7 221.3 177.3 213.7 187.8 214.8C198.3 216 208.7 226 219 228.2C229.3 230.3 239.7 224.7 250 220.5C260.3 216.3 270.7 213.7 281.2 213.5C291.7 213.3 302.3 215.7 312.8 214.7C323.3 213.7 333.7 209.3 344 210.3C354.3 211.3 364.7 217.7 375 218.2C385.3 218.7 395.7 213.3 406.2 210.2C416.7 207 427.3 206 437.8 209.7C448.3 213.3 458.7 221.7 469 225.8C479.3 230 489.7 230 494.8 230L500 230L500 0L494.8 0C489.7 0 479.3 0 469 0C458.7 0 448.3 0 437.8 0C427.3 0 416.7 0 406.2 0C395.7 0 385.3 0 375 0C364.7 0 354.3 0 344 0C333.7 0 323.3 0 312.8 0C302.3 0 291.7 0 281.2 0C270.7 0 260.3 0 250 0C239.7 0 229.3 0 219 0C208.7 0 198.3 0 187.8 0C177.3 0 166.7 0 156.2 0C145.7 0 135.3 0 125 0C114.7 0 104.3 0 94 0C83.7 0 73.3 0 62.8 0C52.3 0 41.7 0 31.2 0C20.7 0 10.3 0 5.2 0L0 0Z" fill="#008b72"></path><path d="M0 181L5.2 180.8C10.3 180.7 20.7 180.3 31.2 176C41.7 171.7 52.3 163.3 62.8 162.5C73.3 161.7 83.7 168.3 94 168.7C104.3 169 114.7 163 125 160.5C135.3 158 145.7 159 156.2 159.7C166.7 160.3 177.3 160.7 187.8 160.5C198.3 160.3 208.7 159.7 219 159.3C229.3 159 239.7 159 250 162C260.3 165 270.7 171 281.2 174.7C291.7 178.3 302.3 179.7 312.8 177.7C323.3 175.7 333.7 170.3 344 165.7C354.3 161 364.7 157 375 155.3C385.3 153.7 395.7 154.3 406.2 157.3C416.7 160.3 427.3 165.7 437.8 166.3C448.3 167 458.7 163 469 165.2C479.3 167.3 489.7 175.7 494.8 179.8L500 184L500 0L494.8 0C489.7 0 479.3 0 469 0C458.7 0 448.3 0 437.8 0C427.3 0 416.7 0 406.2 0C395.7 0 385.3 0 375 0C364.7 0 354.3 0 344 0C333.7 0 323.3 0 312.8 0C302.3 0 291.7 0 281.2 0C270.7 0 260.3 0 250 0C239.7 0 229.3 0 219 0C208.7 0 198.3 0 187.8 0C177.3 0 166.7 0 156.2 0C145.7 0 135.3 0 125 0C114.7 0 104.3 0 94 0C83.7 0 73.3 0 62.8 0C52.3 0 41.7 0 31.2 0C20.7 0 10.3 0 5.2 0L0 0Z" fill="#49af63"></path><path d="M0 117L5.2 116.8C10.3 116.7 20.7 116.3 31.2 117.8C41.7 119.3 52.3 122.7 62.8 123.7C73.3 124.7 83.7 123.3 94 120.3C104.3 117.3 114.7 112.7 125 111C135.3 109.3 145.7 110.7 156.2 111C166.7 111.3 177.3 110.7 187.8 111.2C198.3 111.7 208.7 113.3 219 115.5C229.3 117.7 239.7 120.3 250 121.7C260.3 123 270.7 123 281.2 120.5C291.7 118 302.3 113 312.8 110.3C323.3 107.7 333.7 107.3 344 107C354.3 106.7 364.7 106.3 375 108.3C385.3 110.3 395.7 114.7 406.2 117.5C416.7 120.3 427.3 121.7 437.8 119.8C448.3 118 458.7 113 469 111.2C479.3 109.3 489.7 110.7 494.8 111.3L500 112L500 0L494.8 0C489.7 0 479.3 0 469 0C458.7 0 448.3 0 437.8 0C427.3 0 416.7 0 406.2 0C395.7 0 385.3 0 375 0C364.7 0 354.3 0 344 0C333.7 0 323.3 0 312.8 0C302.3 0 291.7 0 281.2 0C270.7 0 260.3 0 250 0C239.7 0 229.3 0 219 0C208.7 0 198.3 0 187.8 0C177.3 0 166.7 0 156.2 0C145.7 0 135.3 0 125 0C114.7 0 104.3 0 94 0C83.7 0 73.3 0 62.8 0C52.3 0 41.7 0 31.2 0C20.7 0 10.3 0 5.2 0L0 0Z" fill="#9bcd40"></path><path d="M0 53L5.2 54.8C10.3 56.7 20.7 60.3 31.2 61.3C41.7 62.3 52.3 60.7 62.8 59.3C73.3 58 83.7 57 94 56.2C104.3 55.3 114.7 54.7 125 54.8C135.3 55 145.7 56 156.2 56.3C166.7 56.7 177.3 56.3 187.8 57.5C198.3 58.7 208.7 61.3 219 60.7C229.3 60 239.7 56 250 53.5C260.3 51 270.7 50 281.2 50.8C291.7 51.7 302.3 54.3 312.8 55.5C323.3 56.7 333.7 56.3 344 55C354.3 53.7 364.7 51.3 375 53.2C385.3 55 395.7 61 406.2 64.2C416.7 67.3 427.3 67.7 437.8 67.8C448.3 68 458.7 68 469 68.3C479.3 68.7 489.7 69.3 494.8 69.7L500 70L500 0L494.8 0C489.7 0 479.3 0 469 0C458.7 0 448.3 0 437.8 0C427.3 0 416.7 0 406.2 0C395.7 0 385.3 0 375 0C364.7 0 354.3 0 344 0C333.7 0 323.3 0 312.8 0C302.3 0 291.7 0 281.2 0C270.7 0 260.3 0 250 0C239.7 0 229.3 0 219 0C208.7 0 198.3 0 187.8 0C177.3 0 166.7 0 156.2 0C145.7 0 135.3 0 125 0C114.7 0 104.3 0 94 0C83.7 0 73.3 0 62.8 0C52.3 0 41.7 0 31.2 0C20.7 0 10.3 0 5.2 0L0 0Z" fill="#ffe100"></path></svg>