<svg id="visual" viewBox="0 0 500 500" width="500" height="500" xmlns="http://www.w3.org/2000/svg" xmlns:xlink="http://www.w3.org/1999/xlink" version="1.1"><rect x="0" y="0" width="500" height="500" fill="#eee0b1"></rect><path d="M0 426L4.8 426.7C9.7 427.3 19.3 428.7 29.2 430.8C39 433 49 436 58.8 437.2C68.7 438.3 78.3 437.7 88.2 434.5C98 431.3 108 425.7 117.8 426.2C127.7 426.7 137.3 433.3 147 436.7C156.7 440 166.3 440 176.2 437C186 434 196 428 205.8 423.8C215.7 419.7 225.3 417.3 235.2 419.2C245 421 255 427 264.8 430C274.7 433 284.3 433 294.2 433.2C304 433.3 314 433.7 323.8 432.7C333.7 431.7 343.3 429.3 353 426C362.7 422.7 372.3 418.3 382.2 420.7C392 423 402 432 411.8 436.2C421.7 440.3 431.3 439.7 441.2 435.2C451 430.7 461 422.3 470.8 421.3C480.7 420.3 490.3 426.7 495.2 429.8L500 433L500 0L495.2 0C490.3 0 480.7 0 470.8 0C461 0 451 0 441.2 0C431.3 0 421.7 0 411.8 0C402 0 392 0 382.2 0C372.3 0 362.7 0 353 0C343.3 0 333.7 0 323.8 0C314 0 304 0 294.2 0C284.3 0 274.7 0 264.8 0C255 0 245 0 235.2 0C225.3 0 215.7 0 205.8 0C196 0 186 0 176.2 0C166.3 0 156.7 0 147 0C137.3 0 127.7 0 117.8 0C108 0 98 0 88.2 0C78.3 0 68.7 0 58.8 0C49 0 39 0 29.2 0C19.3 0 9.7 0 4.8 0L0 0Z" fill="#eee0b1"></path><path d="M0 359L4.8 356.7C9.7 354.3 19.3 349.7 29.2 349.5C39 349.3 49 353.7 58.8 354.2C68.7 354.7 78.3 351.3 88.2 353.3C98 355.3 108 362.7 117.8 361.7C127.7 360.7 137.3 351.3 147 351C156.7 350.7 166.3 359.3 176.2 360.5C186 361.7 196 355.3 205.8 354.2C215.7 353 225.3 357 235.2 358C245 359 255 357 264.8 356.3C274.7 355.7 284.3 356.3 294.2 355.7C304 355 314 353 323.8 352.8C333.7 352.7 343.3 354.3 353 352.8C362.7 351.3 372.3 346.7 382.2 347.5C392 348.3 402 354.7 411.8 357.5C421.7 360.3 431.3 359.7 441.2 359.3C451 359 461 359 470.8 359.2C480.7 359.3 490.3 359.7 495.2 359.8L500 360L500 0L495.2 0C490.3 0 480.7 0 470.8 0C461 0 451 0 441.2 0C431.3 0 421.7 0 411.8 0C402 0 392 0 382.2 0C372.3 0 362.7 0 353 0C343.3 0 333.7 0 323.8 0C314 0 304 0 294.2 0C284.3 0 274.7 0 264.8 0C255 0 245 0 235.2 0C225.3 0 215.7 0 205.8 0C196 0 186 0 176.2 0C166.3 0 156.7 0 147 0C137.3 0 127.7 0 117.8 0C108 0 98 0 88.2 0C78.3 0 68.7 0 58.8 0C49 0 39 0 29.2 0C19.3 0 9.7 0 4.8 0L0 0Z" fill="#e9c18c"></path><path d="M0 272L4.8 272.7C9.7 273.3 19.3 274.7 29.2 276.7C39 278.7 49 281.3 58.8 282.7C68.7 284 78.3 284 88.2 282.8C98 281.7 108 279.3 117.8 277.2C127.7 275 137.3 273 147 272.7C156.7 272.3 166.3 273.7 176.2 276.5C186 279.3 196 283.7 205.8 283.8C215.7 284 225.3 280 235.2 280.7C245 281.3 255 286.7 264.8 286.7C274.7 286.7 284.3 281.3 294.2 280.8C304 280.3 314 284.7 323.8 284.5C333.7 284.3 343.3 279.7 353 277.8C362.7 276 372.3 277 382.2 279.8C392 282.7 402 287.3 411.8 287.2C421.7 287 431.3 282 441.2 280C451 278 461 279 470.8 281.2C480.7 283.3 490.3 286.7 495.2 288.3L500 290L500 0L495.2 0C490.3 0 480.7 0 470.8 0C461 0 451 0 441.2 0C431.3 0 421.7 0 411.8 0C402 0 392 0 382.2 0C372.3 0 362.7 0 353 0C343.3 0 333.7 0 323.8 0C314 0 304 0 294.2 0C284.3 0 274.7 0 264.8 0C255 0 245 0 235.2 0C225.3 0 215.7 0 205.8 0C196 0 186 0 176.2 0C166.3 0 156.7 0 147 0C137.3 0 127.7 0 117.8 0C108 0 98 0 88.2 0C78.3 0 68.7 0 58.8 0C49 0 39 0 29.2 0C19.3 0 9.7 0 4.8 0L0 0Z" fill="#e69f70"></path><path d="M0 211L4.8 212.5C9.7 214 19.3 217 29.2 216.5C39 216 49 212 58.8 211.3C68.7 210.7 78.3 213.3 88.2 215.5C98 217.7 108 219.3 117.8 217.8C127.7 216.3 137.3 211.7 147 208.7C156.7 205.7 166.3 204.3 176.2 204.3C186 204.3 196 205.7 205.8 207.7C215.7 209.7 225.3 212.3 235.2 212.7C245 213 255 211 264.8 211.2C274.7 211.3 284.3 213.7 294.2 215.3C304 217 314 218 323.8 217.5C333.7 217 343.3 215 353 213.5C362.7 212 372.3 211 382.2 209.3C392 207.7 402 205.3 411.8 203.8C421.7 202.3 431.3 201.7 441.2 201.5C451 201.3 461 201.7 470.8 201.8C480.7 202 490.3 202 495.2 202L500 202L500 0L495.2 0C490.3 0 480.7 0 470.8 0C461 0 451 0 441.2 0C431.3 0 421.7 0 411.8 0C402 0 392 0 382.2 0C372.3 0 362.7 0 353 0C343.3 0 333.7 0 323.8 0C314 0 304 0 294.2 0C284.3 0 274.7 0 264.8 0C255 0 245 0 235.2 0C225.3 0 215.7 0 205.8 0C196 0 186 0 176.2 0C166.3 0 156.7 0 147 0C137.3 0 127.7 0 117.8 0C108 0 98 0 88.2 0C78.3 0 68.7 0 58.8 0C49 0 39 0 29.2 0C19.3 0 9.7 0 4.8 0L0 0Z" fill="#e17a61"></path><path d="M0 147L4.8 147.2C9.7 147.3 19.3 147.7 29.2 147.7C39 147.7 49 147.3 58.8 144.2C68.7 141 78.3 135 88.2 135.8C98 136.7 108 144.3 117.8 146.3C127.7 148.3 137.3 144.7 147 141C156.7 137.3 166.3 133.7 176.2 131.5C186 129.3 196 128.7 205.8 132.8C215.7 137 225.3 146 235.2 147.2C245 148.3 255 141.7 264.8 139.2C274.7 136.7 284.3 138.3 294.2 139.8C304 141.3 314 142.7 323.8 141C333.7 139.3 343.3 134.7 353 132.8C362.7 131 372.3 132 382.2 134.3C392 136.7 402 140.3 411.8 141C421.7 141.7 431.3 139.3 441.2 139C451 138.7 461 140.3 470.8 141.5C480.7 142.7 490.3 143.3 495.2 143.7L500 144L500 0L495.2 0C490.3 0 480.7 0 470.8 0C461 0 451 0 441.2 0C431.3 0 421.7 0 411.8 0C402 0 392 0 382.2 0C372.3 0 362.7 0 353 0C343.3 0 333.7 0 323.8 0C314 0 304 0 294.2 0C284.3 0 274.7 0 264.8 0C255 0 245 0 235.2 0C225.3 0 215.7 0 205.8 0C196 0 186 0 176.2 0C166.3 0 156.7 0 147 0C137.3 0 127.7 0 117.8 0C108 0 98 0 88.2 0C78.3 0 68.7 0 58.8 0C49 0 39 0 29.2 0C19.3 0 9.7 0 4.8 0L0 0Z" fill="#d85260"></path><path d="M0 67L4.8 69.8C9.7 72.7 19.3 78.3 29.2 76.8C39 75.3 49 66.7 58.8 64C68.7 61.3 78.3 64.7 88.2 66.3C98 68 108 68 117.8 66.5C127.7 65 137.3 62 147 63.7C156.7 65.3 166.3 71.7 176.2 73C186 74.3 196 70.7 205.8 70.2C215.7 69.7 225.3 72.3 235.2 72.8C245 73.3 255 71.7 264.8 69.3C274.7 67 284.3 64 294.2 62.7C304 61.3 314 61.7 323.8 65C333.7 68.3 343.3 74.7 353 76.5C362.7 78.3 372.3 75.7 382.2 75.2C392 74.7 402 76.3 411.8 74C421.7 71.7 431.3 65.3 441.2 63.7C451 62 461 65 470.8 67.5C480.7 70 490.3 72 495.2 73L500 74L500 0L495.2 0C490.3 0 480.7 0 470.8 0C461 0 451 0 441.2 0C431.3 0 421.7 0 411.8 0C402 0 392 0 382.2 0C372.3 0 362.7 0 353 0C343.3 0 333.7 0 323.8 0C314 0 304 0 294.2 0C284.3 0 274.7 0 264.8 0C255 0 245 0 235.2 0C225.3 0 215.7 0 205.8 0C196 0 186 0 176.2 0C166.3 0 156.7 0 147 0C137.3 0 127.7 0 117.8 0C108 0 98 0 88.2 0C78.3 0 68.7 0 58.8 0C49 0 39 0 29.2 0C19.3 0 9.7 0 4.8 0L0 0Z" fill="#c62368"></path></svg>