<svg id="visual" viewBox="0 0 2000 625" width="2000" height="675" xmlns="http://www.w3.org/2000/svg" xmlns:xlink="http://www.w3.org/1999/xlink" version="1.1"><rect x="0" y="0" width="2000" height="675" fill="#121212"></rect><path d="M0 218L33.3 216.7C66.7 215.3 133.3 212.7 200 201.2C266.7 189.7 333.3 169.3 400 165C466.7 160.7 533.3 172.3 600 172.3C666.7 172.3 733.3 160.7 800 165.2C866.7 169.7 933.3 190.3 1000 195.5C1066.7 200.7 1133.3 190.3 1200 192.5C1266.7 194.7 1333.3 209.3 1400 203C1466.7 196.7 1533.3 169.3 1600 158.7C1666.7 148 1733.3 154 1800 155C1866.7 156 1933.3 152 1966.7 150L2000 148L2000 0L1966.7 0C1933.3 0 1866.7 0 1800 0C1733.3 0 1666.7 0 1600 0C1533.3 0 1466.7 0 1400 0C1333.3 0 1266.7 0 1200 0C1133.3 0 1066.7 0 1000 0C933.3 0 866.7 0 800 0C733.3 0 666.7 0 600 0C533.3 0 466.7 0 400 0C333.3 0 266.7 0 200 0C133.3 0 66.7 0 33.3 0L0 0Z" fill="#f4ebd0"></path><path d="M0 142L33.3 149C66.7 156 133.3 170 200 165.8C266.7 161.7 333.3 139.3 400 138.2C466.7 137 533.3 157 600 165.5C666.7 174 733.3 171 800 159.8C866.7 148.7 933.3 129.3 1000 128.8C1066.7 128.3 1133.3 146.7 1200 154.7C1266.7 162.7 1333.3 160.3 1400 154.8C1466.7 149.3 1533.3 140.7 1600 143.2C1666.7 145.7 1733.3 159.3 1800 160.8C1866.7 162.3 1933.3 151.7 1966.7 146.3L2000 141L2000 0L1966.7 0C1933.3 0 1866.7 0 1800 0C1733.3 0 1666.7 0 1600 0C1533.3 0 1466.7 0 1400 0C1333.3 0 1266.7 0 1200 0C1133.3 0 1066.7 0 1000 0C933.3 0 866.7 0 800 0C733.3 0 666.7 0 600 0C533.3 0 466.7 0 400 0C333.3 0 266.7 0 200 0C133.3 0 66.7 0 33.3 0L0 0Z" fill="#e9c29a"></path><path d="M0 102L33.3 103.2C66.7 104.3 133.3 106.7 200 104.7C266.7 102.7 333.3 96.3 400 93C466.7 89.7 533.3 89.3 600 94.8C666.7 100.3 733.3 111.7 800 112.8C866.7 114 933.3 105 1000 102.8C1066.7 100.7 1133.3 105.3 1200 107C1266.7 108.7 1333.3 107.3 1400 103.7C1466.7 100 1533.3 94 1600 94.2C1666.7 94.3 1733.3 100.7 1800 101.8C1866.7 103 1933.3 99 1966.7 97L2000 95L2000 0L1966.7 0C1933.3 0 1866.7 0 1800 0C1733.3 0 1666.7 0 1600 0C1533.3 0 1466.7 0 1400 0C1333.3 0 1266.7 0 1200 0C1133.3 0 1066.7 0 1000 0C933.3 0 866.7 0 800 0C733.3 0 666.7 0 600 0C533.3 0 466.7 0 400 0C333.3 0 266.7 0 200 0C133.3 0 66.7 0 33.3 0L0 0Z" fill="#e49573"></path><path d="M0 90L33.3 85.8C66.7 81.7 133.3 73.3 200 71C266.7 68.7 333.3 72.3 400 70.7C466.7 69 533.3 62 600 62.3C666.7 62.7 733.3 70.3 800 78.8C866.7 87.3 933.3 96.7 1000 95.5C1066.7 94.3 1133.3 82.7 1200 79.7C1266.7 76.7 1333.3 82.3 1400 85.8C1466.7 89.3 1533.3 90.7 1600 91.7C1666.7 92.7 1733.3 93.3 1800 92.7C1866.7 92 1933.3 90 1966.7 89L2000 88L2000 0L1966.7 0C1933.3 0 1866.7 0 1800 0C1733.3 0 1666.7 0 1600 0C1533.3 0 1466.7 0 1400 0C1333.3 0 1266.7 0 1200 0C1133.3 0 1066.7 0 1000 0C933.3 0 866.7 0 800 0C733.3 0 666.7 0 600 0C533.3 0 466.7 0 400 0C333.3 0 266.7 0 200 0C133.3 0 66.7 0 33.3 0L0 0Z" fill="#db6263"></path><path d="M0 52L33.3 53.2C66.7 54.3 133.3 56.7 200 54.8C266.7 53 333.3 47 400 46.2C466.7 45.3 533.3 49.7 600 53C666.7 56.3 733.3 58.7 800 54.3C866.7 50 933.3 39 1000 36.2C1066.7 33.3 1133.3 38.7 1200 44.2C1266.7 49.7 1333.3 55.3 1400 57.7C1466.7 60 1533.3 59 1600 53C1666.7 47 1733.3 36 1800 34C1866.7 32 1933.3 39 1966.7 42.5L2000 46L2000 0L1966.7 0C1933.3 0 1866.7 0 1800 0C1733.3 0 1666.7 0 1600 0C1533.3 0 1466.7 0 1400 0C1333.3 0 1266.7 0 1200 0C1133.3 0 1066.7 0 1000 0C933.3 0 866.7 0 800 0C733.3 0 666.7 0 600 0C533.3 0 466.7 0 400 0C333.3 0 266.7 0 200 0C133.3 0 66.7 0 33.3 0L0 0Z" fill="#c62368"></path></svg>