<svg id="visual" viewBox="0 0 960 540" width="960" height="540" xmlns="http://www.w3.org/2000/svg" xmlns:xlink="http://www.w3.org/1999/xlink" version="1.1"><rect x="0" y="0" width="960" height="540" fill="#121212"></rect><path d="M0 107L17.8 108C35.7 109 71.3 111 106.8 115C142.3 119 177.7 125 213.2 122.3C248.7 119.7 284.3 108.3 320 107.3C355.7 106.3 391.3 115.7 426.8 118.3C462.3 121 497.7 117 533.2 114.5C568.7 112 604.3 111 640 107.8C675.7 104.7 711.3 99.3 746.8 97C782.3 94.7 817.7 95.3 853.2 98.3C888.7 101.3 924.3 106.7 942.2 109.3L960 112L960 0L942.2 0C924.3 0 888.7 0 853.2 0C817.7 0 782.3 0 746.8 0C711.3 0 675.7 0 640 0C604.3 0 568.7 0 533.2 0C497.7 0 462.3 0 426.8 0C391.3 0 355.7 0 320 0C284.3 0 248.7 0 213.2 0C177.7 0 142.3 0 106.8 0C71.3 0 35.7 0 17.8 0L0 0Z" fill="#f4ebd0"></path><path d="M0 80L17.8 79C35.7 78 71.3 76 106.8 79.3C142.3 82.7 177.7 91.3 213.2 94C248.7 96.7 284.3 93.3 320 89.2C355.7 85 391.3 80 426.8 82C462.3 84 497.7 93 533.2 96.7C568.7 100.3 604.3 98.7 640 94.3C675.7 90 711.3 83 746.8 81.2C782.3 79.3 817.7 82.7 853.2 84C888.7 85.3 924.3 84.7 942.2 84.3L960 84L960 0L942.2 0C924.3 0 888.7 0 853.2 0C817.7 0 782.3 0 746.8 0C711.3 0 675.7 0 640 0C604.3 0 568.7 0 533.2 0C497.7 0 462.3 0 426.8 0C391.3 0 355.7 0 320 0C284.3 0 248.7 0 213.2 0C177.7 0 142.3 0 106.8 0C71.3 0 35.7 0 17.8 0L0 0Z" fill="#f2e1c6"></path><path d="M0 67L17.8 66.2C35.7 65.3 71.3 63.7 106.8 63.7C142.3 63.7 177.7 65.3 213.2 66.8C248.7 68.3 284.3 69.7 320 70.7C355.7 71.7 391.3 72.3 426.8 72.2C462.3 72 497.7 71 533.2 72.7C568.7 74.3 604.3 78.7 640 77.5C675.7 76.3 711.3 69.7 746.8 68.3C782.3 67 817.7 71 853.2 70C888.7 69 924.3 63 942.2 60L960 57L960 0L942.2 0C924.3 0 888.7 0 853.2 0C817.7 0 782.3 0 746.8 0C711.3 0 675.7 0 640 0C604.3 0 568.7 0 533.2 0C497.7 0 462.3 0 426.8 0C391.3 0 355.7 0 320 0C284.3 0 248.7 0 213.2 0C177.7 0 142.3 0 106.8 0C71.3 0 35.7 0 17.8 0L0 0Z" fill="#f1d6bd"></path><path d="M0 50L17.8 47.8C35.7 45.7 71.3 41.3 106.8 40.2C142.3 39 177.7 41 213.2 42.7C248.7 44.3 284.3 45.7 320 45.2C355.7 44.7 391.3 42.3 426.8 43.8C462.3 45.3 497.7 50.7 533.2 50C568.7 49.3 604.3 42.7 640 43C675.7 43.3 711.3 50.7 746.8 54.2C782.3 57.7 817.7 57.3 853.2 54.5C888.7 51.7 924.3 46.3 942.2 43.7L960 41L960 0L942.2 0C924.3 0 888.7 0 853.2 0C817.7 0 782.3 0 746.8 0C711.3 0 675.7 0 640 0C604.3 0 568.7 0 533.2 0C497.7 0 462.3 0 426.8 0C391.3 0 355.7 0 320 0C284.3 0 248.7 0 213.2 0C177.7 0 142.3 0 106.8 0C71.3 0 35.7 0 17.8 0L0 0Z" fill="#efcbb6"></path><path d="M0 36L17.8 33C35.7 30 71.3 24 106.8 22.5C142.3 21 177.7 24 213.2 26.5C248.7 29 284.3 31 320 32.2C355.7 33.3 391.3 33.7 426.8 31.3C462.3 29 497.7 24 533.2 22C568.7 20 604.3 21 640 22.5C675.7 24 711.3 26 746.8 26C782.3 26 817.7 24 853.2 23.2C888.7 22.3 924.3 22.7 942.2 22.8L960 23L960 0L942.2 0C924.3 0 888.7 0 853.2 0C817.7 0 782.3 0 746.8 0C711.3 0 675.7 0 640 0C604.3 0 568.7 0 533.2 0C497.7 0 462.3 0 426.8 0C391.3 0 355.7 0 320 0C284.3 0 248.7 0 213.2 0C177.7 0 142.3 0 106.8 0C71.3 0 35.7 0 17.8 0L0 0Z" fill="#edc1b1"></path></svg>