<svg id="visual" viewBox="0 0 960 540" width="960" height="540" xmlns="http://www.w3.org/2000/svg" xmlns:xlink="http://www.w3.org/1999/xlink" version="1.1"><rect x="0" y="0" width="960" height="540" fill="#121212"></rect><path d="M0 99L17.8 97.2C35.7 95.3 71.3 91.7 106.8 90.3C142.3 89 177.7 90 213.2 90.7C248.7 91.3 284.3 91.7 320 95.3C355.7 99 391.3 106 426.8 108.8C462.3 111.7 497.7 110.3 533.2 105.3C568.7 100.3 604.3 91.7 640 94.5C675.7 97.3 711.3 111.7 746.8 118.2C782.3 124.7 817.7 123.3 853.2 118.8C888.7 114.3 924.3 106.7 942.2 102.8L960 99L960 0L942.2 0C924.3 0 888.7 0 853.2 0C817.7 0 782.3 0 746.8 0C711.3 0 675.7 0 640 0C604.3 0 568.7 0 533.2 0C497.7 0 462.3 0 426.8 0C391.3 0 355.7 0 320 0C284.3 0 248.7 0 213.2 0C177.7 0 142.3 0 106.8 0C71.3 0 35.7 0 17.8 0L0 0Z" fill="#f4ebd0"></path><path d="M0 90L17.8 88.3C35.7 86.7 71.3 83.3 106.8 77.8C142.3 72.3 177.7 64.7 213.2 66C248.7 67.3 284.3 77.7 320 79.3C355.7 81 391.3 74 426.8 74.5C462.3 75 497.7 83 533.2 80.8C568.7 78.7 604.3 66.3 640 61.5C675.7 56.7 711.3 59.3 746.8 62.5C782.3 65.7 817.7 69.3 853.2 74.2C888.7 79 924.3 85 942.2 88L960 91L960 0L942.2 0C924.3 0 888.7 0 853.2 0C817.7 0 782.3 0 746.8 0C711.3 0 675.7 0 640 0C604.3 0 568.7 0 533.2 0C497.7 0 462.3 0 426.8 0C391.3 0 355.7 0 320 0C284.3 0 248.7 0 213.2 0C177.7 0 142.3 0 106.8 0C71.3 0 35.7 0 17.8 0L0 0Z" fill="#f1d6bd"></path><path d="M0 45L17.8 45.3C35.7 45.7 71.3 46.3 106.8 45.2C142.3 44 177.7 41 213.2 37.5C248.7 34 284.3 30 320 31.7C355.7 33.3 391.3 40.7 426.8 44.8C462.3 49 497.7 50 533.2 48.7C568.7 47.3 604.3 43.7 640 41.5C675.7 39.3 711.3 38.7 746.8 37.3C782.3 36 817.7 34 853.2 36.2C888.7 38.3 924.3 44.7 942.2 47.8L960 51L960 0L942.2 0C924.3 0 888.7 0 853.2 0C817.7 0 782.3 0 746.8 0C711.3 0 675.7 0 640 0C604.3 0 568.7 0 533.2 0C497.7 0 462.3 0 426.8 0C391.3 0 355.7 0 320 0C284.3 0 248.7 0 213.2 0C177.7 0 142.3 0 106.8 0C71.3 0 35.7 0 17.8 0L0 0Z" fill="#edc1b1"></path></svg>