<svg id="visual" viewBox="0 0 2000 275" width="2000" height="275" xmlns="http://www.w3.org/2000/svg" xmlns:xlink="http://www.w3.org/1999/xlink" version="1.1"><rect x="0" y="0" width="2000" height="275" fill="#001220"></rect><path d="M0 214L30.3 217.7C60.7 221.3 121.3 228.7 182 233.2C242.7 237.7 303.3 239.3 363.8 234C424.3 228.7 484.7 216.3 545.2 215.8C605.7 215.3 666.3 226.7 727 229.8C787.7 233 848.3 228 909 216.5C969.7 205 1030.3 187 1091 184C1151.7 181 1212.3 193 1273 205C1333.7 217 1394.3 229 1454.8 228.5C1515.3 228 1575.7 215 1636.2 206C1696.7 197 1757.3 192 1818 191.7C1878.7 191.3 1939.3 195.7 1969.7 197.8L2000 200L2000 0L1969.7 0C1939.3 0 1878.7 0 1818 0C1757.3 0 1696.7 0 1636.2 0C1575.7 0 1515.3 0 1454.8 0C1394.3 0 1333.7 0 1273 0C1212.3 0 1151.7 0 1091 0C1030.3 0 969.7 0 909 0C848.3 0 787.7 0 727 0C666.3 0 605.7 0 545.2 0C484.7 0 424.3 0 363.8 0C303.3 0 242.7 0 182 0C121.3 0 60.7 0 30.3 0L0 0Z" fill="#ffe100"></path><path d="M0 209L30.3 209C60.7 209 121.3 209 182 208.5C242.7 208 303.3 207 363.8 206.8C424.3 206.7 484.7 207.3 545.2 209.5C605.7 211.7 666.3 215.3 727 213.5C787.7 211.7 848.3 204.3 909 200.7C969.7 197 1030.3 197 1091 192C1151.7 187 1212.3 177 1273 173.8C1333.7 170.7 1394.3 174.3 1454.8 171.3C1515.3 168.3 1575.7 158.7 1636.2 153.7C1696.7 148.7 1757.3 148.3 1818 153.2C1878.7 158 1939.3 168 1969.7 173L2000 178L2000 0L1969.7 0C1939.3 0 1878.7 0 1818 0C1757.3 0 1696.7 0 1636.2 0C1575.7 0 1515.3 0 1454.8 0C1394.3 0 1333.7 0 1273 0C1212.3 0 1151.7 0 1091 0C1030.3 0 969.7 0 909 0C848.3 0 787.7 0 727 0C666.3 0 605.7 0 545.2 0C484.7 0 424.3 0 363.8 0C303.3 0 242.7 0 182 0C121.3 0 60.7 0 30.3 0L0 0Z" fill="#ffbd0c"></path><path d="M0 187L30.3 175.8C60.7 164.7 121.3 142.3 182 130.3C242.7 118.3 303.3 116.7 363.8 115.7C424.3 114.7 484.7 114.3 545.2 125.5C605.7 136.7 666.3 159.3 727 164.2C787.7 169 848.3 156 909 151.7C969.7 147.3 1030.3 151.7 1091 149.7C1151.7 147.7 1212.3 139.3 1273 142.2C1333.7 145 1394.3 159 1454.8 160.5C1515.3 162 1575.7 151 1636.2 142C1696.7 133 1757.3 126 1818 122.2C1878.7 118.3 1939.3 117.7 1969.7 117.3L2000 117L2000 0L1969.7 0C1939.3 0 1878.7 0 1818 0C1757.3 0 1696.7 0 1636.2 0C1575.7 0 1515.3 0 1454.8 0C1394.3 0 1333.7 0 1273 0C1212.3 0 1151.7 0 1091 0C1030.3 0 969.7 0 909 0C848.3 0 787.7 0 727 0C666.3 0 605.7 0 545.2 0C484.7 0 424.3 0 363.8 0C303.3 0 242.7 0 182 0C121.3 0 60.7 0 30.3 0L0 0Z" fill="#ff9927"></path><path d="M0 137L30.3 140C60.7 143 121.3 149 182 152C242.7 155 303.3 155 363.8 153.5C424.3 152 484.7 149 545.2 147.3C605.7 145.7 666.3 145.3 727 141.5C787.7 137.7 848.3 130.3 909 128.5C969.7 126.7 1030.3 130.3 1091 128.7C1151.7 127 1212.3 120 1273 121.2C1333.7 122.3 1394.3 131.7 1454.8 133.3C1515.3 135 1575.7 129 1636.2 130C1696.7 131 1757.3 139 1818 144C1878.7 149 1939.3 151 1969.7 152L2000 153L2000 0L1969.7 0C1939.3 0 1878.7 0 1818 0C1757.3 0 1696.7 0 1636.2 0C1575.7 0 1515.3 0 1454.8 0C1394.3 0 1333.7 0 1273 0C1212.3 0 1151.7 0 1091 0C1030.3 0 969.7 0 909 0C848.3 0 787.7 0 727 0C666.3 0 605.7 0 545.2 0C484.7 0 424.3 0 363.8 0C303.3 0 242.7 0 182 0C121.3 0 60.7 0 30.3 0L0 0Z" fill="#ff773b"></path><path d="M0 99L30.3 97C60.7 95 121.3 91 182 89.7C242.7 88.3 303.3 89.7 363.8 90.3C424.3 91 484.7 91 545.2 94.5C605.7 98 666.3 105 727 102.7C787.7 100.3 848.3 88.7 909 82.5C969.7 76.3 1030.3 75.7 1091 83C1151.7 90.3 1212.3 105.7 1273 104.7C1333.7 103.7 1394.3 86.3 1454.8 85.7C1515.3 85 1575.7 101 1636.2 107.2C1696.7 113.3 1757.3 109.7 1818 110.3C1878.7 111 1939.3 116 1969.7 118.5L2000 121L2000 0L1969.7 0C1939.3 0 1878.7 0 1818 0C1757.3 0 1696.7 0 1636.2 0C1575.7 0 1515.3 0 1454.8 0C1394.3 0 1333.7 0 1273 0C1212.3 0 1151.7 0 1091 0C1030.3 0 969.7 0 909 0C848.3 0 787.7 0 727 0C666.3 0 605.7 0 545.2 0C484.7 0 424.3 0 363.8 0C303.3 0 242.7 0 182 0C121.3 0 60.7 0 30.3 0L0 0Z" fill="#f4574c"></path><path d="M0 88L30.3 86.8C60.7 85.7 121.3 83.3 182 76.7C242.7 70 303.3 59 363.8 58.8C424.3 58.7 484.7 69.3 545.2 68.3C605.7 67.3 666.3 54.7 727 54.5C787.7 54.3 848.3 66.7 909 69.8C969.7 73 1030.3 67 1091 60C1151.7 53 1212.3 45 1273 49.7C1333.7 54.3 1394.3 71.7 1454.8 71.5C1515.3 71.3 1575.7 53.7 1636.2 50.7C1696.7 47.7 1757.3 59.3 1818 63.7C1878.7 68 1939.3 65 1969.7 63.5L2000 62L2000 0L1969.7 0C1939.3 0 1878.7 0 1818 0C1757.3 0 1696.7 0 1636.2 0C1575.7 0 1515.3 0 1454.8 0C1394.3 0 1333.7 0 1273 0C1212.3 0 1151.7 0 1091 0C1030.3 0 969.7 0 909 0C848.3 0 787.7 0 727 0C666.3 0 605.7 0 545.2 0C484.7 0 424.3 0 363.8 0C303.3 0 242.7 0 182 0C121.3 0 60.7 0 30.3 0L0 0Z" fill="#e13a5b"></path><path d="M0 28L30.3 25.2C60.7 22.3 121.3 16.7 182 15.3C242.7 14 303.3 17 363.8 16.7C424.3 16.3 484.7 12.7 545.2 15.8C605.7 19 666.3 29 727 29.3C787.7 29.7 848.3 20.3 909 22.8C969.7 25.3 1030.3 39.7 1091 46.5C1151.7 53.3 1212.3 52.7 1273 51.7C1333.7 50.7 1394.3 49.3 1454.8 46.7C1515.3 44 1575.7 40 1636.2 38.7C1696.7 37.3 1757.3 38.7 1818 35.5C1878.7 32.3 1939.3 24.7 1969.7 20.8L2000 17L2000 0L1969.7 0C1939.3 0 1878.7 0 1818 0C1757.3 0 1696.7 0 1636.2 0C1575.7 0 1515.3 0 1454.8 0C1394.3 0 1333.7 0 1273 0C1212.3 0 1151.7 0 1091 0C1030.3 0 969.7 0 909 0C848.3 0 787.7 0 727 0C666.3 0 605.7 0 545.2 0C484.7 0 424.3 0 363.8 0C303.3 0 242.7 0 182 0C121.3 0 60.7 0 30.3 0L0 0Z" fill="#c62368"></path></svg>