<svg id="visual" viewBox="0 0 2700 275" width="2700" height="275" xmlns="http://www.w3.org/2000/svg" xmlns:xlink="http://www.w3.org/1999/xlink" version="1.1"><rect x="0" y="0" width="2700" height="275" fill="#0E141B"></rect><path d="M0 196L23.7 200.7C47.3 205.3 94.7 214.7 142 213.8C189.3 213 236.7 202 284 203.2C331.3 204.3 378.7 217.7 426 223.2C473.3 228.7 520.7 226.3 568.2 225.8C615.7 225.3 663.3 226.7 710.8 223.2C758.3 219.7 805.7 211.3 853 204C900.3 196.7 947.7 190.3 995 195C1042.3 199.7 1089.7 215.3 1137 223.3C1184.3 231.3 1231.7 231.7 1279 230.5C1326.3 229.3 1373.7 226.7 1421 225.7C1468.3 224.7 1515.7 225.3 1563 218.5C1610.3 211.7 1657.7 197.3 1705 190.2C1752.3 183 1799.7 183 1847 186.3C1894.3 189.7 1941.7 196.3 1989.2 202.2C2036.7 208 2084.3 213 2131.8 218C2179.3 223 2226.7 228 2274 223.5C2321.3 219 2368.7 205 2416 200.8C2463.3 196.7 2510.7 202.3 2558 204.3C2605.3 206.3 2652.7 204.7 2676.3 203.8L2700 203L2700 0L2676.3 0C2652.7 0 2605.3 0 2558 0C2510.7 0 2463.3 0 2416 0C2368.7 0 2321.3 0 2274 0C2226.7 0 2179.3 0 2131.8 0C2084.3 0 2036.7 0 1989.2 0C1941.7 0 1894.3 0 1847 0C1799.7 0 1752.3 0 1705 0C1657.7 0 1610.3 0 1563 0C1515.7 0 1468.3 0 1421 0C1373.7 0 1326.3 0 1279 0C1231.7 0 1184.3 0 1137 0C1089.7 0 1042.3 0 995 0C947.7 0 900.3 0 853 0C805.7 0 758.3 0 710.8 0C663.3 0 615.7 0 568.2 0C520.7 0 473.3 0 426 0C378.7 0 331.3 0 284 0C236.7 0 189.3 0 142 0C94.7 0 47.3 0 23.7 0L0 0Z" fill="#ffe100"></path><path d="M0 160L23.7 164.2C47.3 168.3 94.7 176.7 142 179.2C189.3 181.7 236.7 178.3 284 175.7C331.3 173 378.7 171 426 174.3C473.3 177.7 520.7 186.3 568.2 186.5C615.7 186.7 663.3 178.3 710.8 175.7C758.3 173 805.7 176 853 177C900.3 178 947.7 177 995 180.2C1042.3 183.3 1089.7 190.7 1137 190C1184.3 189.3 1231.7 180.7 1279 178.8C1326.3 177 1373.7 182 1421 187.2C1468.3 192.3 1515.7 197.7 1563 195C1610.3 192.3 1657.7 181.7 1705 177.3C1752.3 173 1799.7 175 1847 175.5C1894.3 176 1941.7 175 1989.2 175.3C2036.7 175.7 2084.3 177.3 2131.8 175.7C2179.3 174 2226.7 169 2274 167.8C2321.3 166.7 2368.7 169.3 2416 171.7C2463.3 174 2510.7 176 2558 180C2605.3 184 2652.7 190 2676.3 193L2700 196L2700 0L2676.3 0C2652.7 0 2605.3 0 2558 0C2510.7 0 2463.3 0 2416 0C2368.7 0 2321.3 0 2274 0C2226.7 0 2179.3 0 2131.8 0C2084.3 0 2036.7 0 1989.2 0C1941.7 0 1894.3 0 1847 0C1799.7 0 1752.3 0 1705 0C1657.7 0 1610.3 0 1563 0C1515.7 0 1468.3 0 1421 0C1373.7 0 1326.3 0 1279 0C1231.7 0 1184.3 0 1137 0C1089.7 0 1042.3 0 995 0C947.7 0 900.3 0 853 0C805.7 0 758.3 0 710.8 0C663.3 0 615.7 0 568.2 0C520.7 0 473.3 0 426 0C378.7 0 331.3 0 284 0C236.7 0 189.3 0 142 0C94.7 0 47.3 0 23.7 0L0 0Z" fill="#97cb41"></path><path d="M0 137L23.7 138.5C47.3 140 94.7 143 142 146.2C189.3 149.3 236.7 152.7 284 151.5C331.3 150.3 378.7 144.7 426 145.7C473.3 146.7 520.7 154.3 568.2 159.2C615.7 164 663.3 166 710.8 164.8C758.3 163.7 805.7 159.3 853 156C900.3 152.7 947.7 150.3 995 152.7C1042.3 155 1089.7 162 1137 162.5C1184.3 163 1231.7 157 1279 152.3C1326.3 147.7 1373.7 144.3 1421 143C1468.3 141.7 1515.7 142.3 1563 143.8C1610.3 145.3 1657.7 147.7 1705 149.7C1752.3 151.7 1799.7 153.3 1847 153.5C1894.3 153.7 1941.7 152.3 1989.2 151.5C2036.7 150.7 2084.3 150.3 2131.8 150.7C2179.3 151 2226.7 152 2274 152.3C2321.3 152.7 2368.7 152.3 2416 150.8C2463.3 149.3 2510.7 146.7 2558 145.5C2605.3 144.3 2652.7 144.7 2676.3 144.8L2700 145L2700 0L2676.3 0C2652.7 0 2605.3 0 2558 0C2510.7 0 2463.3 0 2416 0C2368.7 0 2321.3 0 2274 0C2226.7 0 2179.3 0 2131.8 0C2084.3 0 2036.7 0 1989.2 0C1941.7 0 1894.3 0 1847 0C1799.7 0 1752.3 0 1705 0C1657.7 0 1610.3 0 1563 0C1515.7 0 1468.3 0 1421 0C1373.7 0 1326.3 0 1279 0C1231.7 0 1184.3 0 1137 0C1089.7 0 1042.3 0 995 0C947.7 0 900.3 0 853 0C805.7 0 758.3 0 710.8 0C663.3 0 615.7 0 568.2 0C520.7 0 473.3 0 426 0C378.7 0 331.3 0 284 0C236.7 0 189.3 0 142 0C94.7 0 47.3 0 23.7 0L0 0Z" fill="#42ab64"></path><path d="M0 120L23.7 118.7C47.3 117.3 94.7 114.7 142 118.2C189.3 121.7 236.7 131.3 284 135.5C331.3 139.7 378.7 138.3 426 132.5C473.3 126.7 520.7 116.3 568.2 114.3C615.7 112.3 663.3 118.7 710.8 118C758.3 117.3 805.7 109.7 853 109.7C900.3 109.7 947.7 117.3 995 122.5C1042.3 127.7 1089.7 130.3 1137 131.2C1184.3 132 1231.7 131 1279 130.2C1326.3 129.3 1373.7 128.7 1421 129.8C1468.3 131 1515.7 134 1563 134.7C1610.3 135.3 1657.7 133.7 1705 129.8C1752.3 126 1799.7 120 1847 116.5C1894.3 113 1941.7 112 1989.2 111.3C2036.7 110.7 2084.3 110.3 2131.8 112C2179.3 113.7 2226.7 117.3 2274 119.2C2321.3 121 2368.7 121 2416 120.2C2463.3 119.3 2510.7 117.7 2558 118.8C2605.3 120 2652.7 124 2676.3 126L2700 128L2700 0L2676.3 0C2652.7 0 2605.3 0 2558 0C2510.7 0 2463.3 0 2416 0C2368.7 0 2321.3 0 2274 0C2226.7 0 2179.3 0 2131.8 0C2084.3 0 2036.7 0 1989.2 0C1941.7 0 1894.3 0 1847 0C1799.7 0 1752.3 0 1705 0C1657.7 0 1610.3 0 1563 0C1515.7 0 1468.3 0 1421 0C1373.7 0 1326.3 0 1279 0C1231.7 0 1184.3 0 1137 0C1089.7 0 1042.3 0 995 0C947.7 0 900.3 0 853 0C805.7 0 758.3 0 710.8 0C663.3 0 615.7 0 568.2 0C520.7 0 473.3 0 426 0C378.7 0 331.3 0 284 0C236.7 0 189.3 0 142 0C94.7 0 47.3 0 23.7 0L0 0Z" fill="#008470"></path><path d="M0 102L23.7 102C47.3 102 94.7 102 142 103C189.3 104 236.7 106 284 106.2C331.3 106.3 378.7 104.7 426 104.7C473.3 104.7 520.7 106.3 568.2 104C615.7 101.7 663.3 95.3 710.8 91C758.3 86.7 805.7 84.3 853 86.3C900.3 88.3 947.7 94.7 995 96.2C1042.3 97.7 1089.7 94.3 1137 90.8C1184.3 87.3 1231.7 83.7 1279 81.3C1326.3 79 1373.7 78 1421 82.7C1468.3 87.3 1515.7 97.7 1563 98.5C1610.3 99.3 1657.7 90.7 1705 90.3C1752.3 90 1799.7 98 1847 97.3C1894.3 96.7 1941.7 87.3 1989.2 83.5C2036.7 79.7 2084.3 81.3 2131.8 83C2179.3 84.7 2226.7 86.3 2274 86.7C2321.3 87 2368.7 86 2416 85.2C2463.3 84.3 2510.7 83.7 2558 84.8C2605.3 86 2652.7 89 2676.3 90.5L2700 92L2700 0L2676.3 0C2652.7 0 2605.3 0 2558 0C2510.7 0 2463.3 0 2416 0C2368.7 0 2321.3 0 2274 0C2226.7 0 2179.3 0 2131.8 0C2084.3 0 2036.7 0 1989.2 0C1941.7 0 1894.3 0 1847 0C1799.7 0 1752.3 0 1705 0C1657.7 0 1610.3 0 1563 0C1515.7 0 1468.3 0 1421 0C1373.7 0 1326.3 0 1279 0C1231.7 0 1184.3 0 1137 0C1089.7 0 1042.3 0 995 0C947.7 0 900.3 0 853 0C805.7 0 758.3 0 710.8 0C663.3 0 615.7 0 568.2 0C520.7 0 473.3 0 426 0C378.7 0 331.3 0 284 0C236.7 0 189.3 0 142 0C94.7 0 47.3 0 23.7 0L0 0Z" fill="#005c63"></path><path d="M0 57L23.7 56.7C47.3 56.3 94.7 55.7 142 57.7C189.3 59.7 236.7 64.3 284 65C331.3 65.7 378.7 62.3 426 59C473.3 55.7 520.7 52.3 568.2 55.2C615.7 58 663.3 67 710.8 71.7C758.3 76.3 805.7 76.7 853 72.7C900.3 68.7 947.7 60.3 995 58.7C1042.3 57 1089.7 62 1137 62.2C1184.3 62.3 1231.7 57.7 1279 56.5C1326.3 55.3 1373.7 57.7 1421 59.2C1468.3 60.7 1515.7 61.3 1563 61.5C1610.3 61.7 1657.7 61.3 1705 58.8C1752.3 56.3 1799.7 51.7 1847 54.3C1894.3 57 1941.7 67 1989.2 67.7C2036.7 68.3 2084.3 59.7 2131.8 56.8C2179.3 54 2226.7 57 2274 58.7C2321.3 60.3 2368.7 60.7 2416 63.7C2463.3 66.7 2510.7 72.3 2558 70.8C2605.3 69.3 2652.7 60.7 2676.3 56.3L2700 52L2700 0L2676.3 0C2652.7 0 2605.3 0 2558 0C2510.7 0 2463.3 0 2416 0C2368.7 0 2321.3 0 2274 0C2226.7 0 2179.3 0 2131.8 0C2084.3 0 2036.7 0 1989.2 0C1941.7 0 1894.3 0 1847 0C1799.7 0 1752.3 0 1705 0C1657.7 0 1610.3 0 1563 0C1515.7 0 1468.3 0 1421 0C1373.7 0 1326.3 0 1279 0C1231.7 0 1184.3 0 1137 0C1089.7 0 1042.3 0 995 0C947.7 0 900.3 0 853 0C805.7 0 758.3 0 710.8 0C663.3 0 615.7 0 568.2 0C520.7 0 473.3 0 426 0C378.7 0 331.3 0 284 0C236.7 0 189.3 0 142 0C94.7 0 47.3 0 23.7 0L0 0Z" fill="#0a3644"></path><path d="M0 34L23.7 34.7C47.3 35.3 94.7 36.7 142 35.8C189.3 35 236.7 32 284 30.2C331.3 28.3 378.7 27.7 426 27.3C473.3 27 520.7 27 568.2 26.3C615.7 25.7 663.3 24.3 710.8 27.5C758.3 30.7 805.7 38.3 853 38.7C900.3 39 947.7 32 995 29.2C1042.3 26.3 1089.7 27.7 1137 27.3C1184.3 27 1231.7 25 1279 23.7C1326.3 22.3 1373.7 21.7 1421 21.5C1468.3 21.3 1515.7 21.7 1563 21.8C1610.3 22 1657.7 22 1705 22.5C1752.3 23 1799.7 24 1847 25.7C1894.3 27.3 1941.7 29.7 1989.2 32.2C2036.7 34.7 2084.3 37.3 2131.8 36.5C2179.3 35.7 2226.7 31.3 2274 28.2C2321.3 25 2368.7 23 2416 22.7C2463.3 22.3 2510.7 23.7 2558 25C2605.3 26.3 2652.7 27.7 2676.3 28.3L2700 29L2700 0L2676.3 0C2652.7 0 2605.3 0 2558 0C2510.7 0 2463.3 0 2416 0C2368.7 0 2321.3 0 2274 0C2226.7 0 2179.3 0 2131.8 0C2084.3 0 2036.7 0 1989.2 0C1941.7 0 1894.3 0 1847 0C1799.7 0 1752.3 0 1705 0C1657.7 0 1610.3 0 1563 0C1515.7 0 1468.3 0 1421 0C1373.7 0 1326.3 0 1279 0C1231.7 0 1184.3 0 1137 0C1089.7 0 1042.3 0 995 0C947.7 0 900.3 0 853 0C805.7 0 758.3 0 710.8 0C663.3 0 615.7 0 568.2 0C520.7 0 473.3 0 426 0C378.7 0 331.3 0 284 0C236.7 0 189.3 0 142 0C94.7 0 47.3 0 23.7 0L0 0Z" fill="#0e141b"></path></svg>