<svg id="visual" viewBox="0 0 2000 275" width="2000" height="275" xmlns="http://www.w3.org/2000/svg" xmlns:xlink="http://www.w3.org/1999/xlink" version="1.1"><path d="M0 29L22.2 29C44.3 29 88.7 29 133.2 30.3C177.7 31.7 222.3 34.3 266.8 38.3C311.3 42.3 355.7 47.7 400 49C444.3 50.3 488.7 47.7 533.2 41.3C577.7 35 622.3 25 666.8 22.7C711.3 20.3 755.7 25.7 800 31.7C844.3 37.7 888.7 44.3 933.2 45.3C977.7 46.3 1022.3 41.7 1066.8 39.8C1111.3 38 1155.7 39 1200 38C1244.3 37 1288.7 34 1333.2 36.2C1377.7 38.3 1422.3 45.7 1466.8 46.2C1511.3 46.7 1555.7 40.3 1600 34.5C1644.3 28.7 1688.7 23.3 1733.2 21.5C1777.7 19.7 1822.3 21.3 1866.8 23.2C1911.3 25 1955.7 27 1977.8 28L2000 29L2000 0L1977.8 0C1955.7 0 1911.3 0 1866.8 0C1822.3 0 1777.7 0 1733.2 0C1688.7 0 1644.3 0 1600 0C1555.7 0 1511.3 0 1466.8 0C1422.3 0 1377.7 0 1333.2 0C1288.7 0 1244.3 0 1200 0C1155.7 0 1111.3 0 1066.8 0C1022.3 0 977.7 0 933.2 0C888.7 0 844.3 0 800 0C755.7 0 711.3 0 666.8 0C622.3 0 577.7 0 533.2 0C488.7 0 444.3 0 400 0C355.7 0 311.3 0 266.8 0C222.3 0 177.7 0 133.2 0C88.7 0 44.3 0 22.2 0L0 0Z" fill="#ffe100"></path><path d="M0 84L22.2 83.5C44.3 83 88.7 82 133.2 83.3C177.7 84.7 222.3 88.3 266.8 93.3C311.3 98.3 355.7 104.7 400 101C444.3 97.3 488.7 83.7 533.2 71.8C577.7 60 622.3 50 666.8 53.7C711.3 57.3 755.7 74.7 800 83.8C844.3 93 888.7 94 933.2 88C977.7 82 1022.3 69 1066.8 70.3C1111.3 71.7 1155.7 87.3 1200 91.5C1244.3 95.7 1288.7 88.3 1333.2 82.8C1377.7 77.3 1422.3 73.7 1466.8 76.3C1511.3 79 1555.7 88 1600 87.5C1644.3 87 1688.7 77 1733.2 67.8C1777.7 58.7 1822.3 50.3 1866.8 51.3C1911.3 52.3 1955.7 62.7 1977.8 67.8L2000 73L2000 27L1977.8 26C1955.7 25 1911.3 23 1866.8 21.2C1822.3 19.3 1777.7 17.7 1733.2 19.5C1688.7 21.3 1644.3 26.7 1600 32.5C1555.7 38.3 1511.3 44.7 1466.8 44.2C1422.3 43.7 1377.7 36.3 1333.2 34.2C1288.7 32 1244.3 35 1200 36C1155.7 37 1111.3 36 1066.8 37.8C1022.3 39.7 977.7 44.3 933.2 43.3C888.7 42.3 844.3 35.7 800 29.7C755.7 23.7 711.3 18.3 666.8 20.7C622.3 23 577.7 33 533.2 39.3C488.7 45.7 444.3 48.3 400 47C355.7 45.7 311.3 40.3 266.8 36.3C222.3 32.3 177.7 29.7 133.2 28.3C88.7 27 44.3 27 22.2 27L0 27Z" fill="#6abc55"></path><path d="M0 122L22.2 118.8C44.3 115.7 88.7 109.3 133.2 108.5C177.7 107.7 222.3 112.3 266.8 122C311.3 131.7 355.7 146.3 400 143.5C444.3 140.7 488.7 120.3 533.2 107.8C577.7 95.3 622.3 90.7 666.8 96.7C711.3 102.7 755.7 119.3 800 130C844.3 140.7 888.7 145.3 933.2 138C977.7 130.7 1022.3 111.3 1066.8 112.7C1111.3 114 1155.7 136 1200 141.5C1244.3 147 1288.7 136 1333.2 130C1377.7 124 1422.3 123 1466.8 128C1511.3 133 1555.7 144 1600 141.3C1644.3 138.7 1688.7 122.3 1733.2 113.7C1777.7 105 1822.3 104 1866.8 105.3C1911.3 106.7 1955.7 110.3 1977.8 112.2L2000 114L2000 71L1977.8 65.8C1955.7 60.7 1911.3 50.3 1866.8 49.3C1822.3 48.3 1777.7 56.7 1733.2 65.8C1688.7 75 1644.3 85 1600 85.5C1555.7 86 1511.3 77 1466.8 74.3C1422.3 71.7 1377.7 75.3 1333.2 80.8C1288.7 86.3 1244.3 93.7 1200 89.5C1155.7 85.3 1111.3 69.7 1066.8 68.3C1022.3 67 977.7 80 933.2 86C888.7 92 844.3 91 800 81.8C755.7 72.7 711.3 55.3 666.8 51.7C622.3 48 577.7 58 533.2 69.8C488.7 81.7 444.3 95.3 400 99C355.7 102.7 311.3 96.3 266.8 91.3C222.3 86.3 177.7 82.7 133.2 81.3C88.7 80 44.3 81 22.2 81.5L0 82Z" fill="#008470"></path><path d="M0 202L22.2 197.8C44.3 193.7 88.7 185.3 133.2 176.2C177.7 167 222.3 157 266.8 160.2C311.3 163.3 355.7 179.7 400 193C444.3 206.3 488.7 216.7 533.2 210.8C577.7 205 622.3 183 666.8 176C711.3 169 755.7 177 800 189.8C844.3 202.7 888.7 220.3 933.2 214C977.7 207.7 1022.3 177.3 1066.8 170.8C1111.3 164.3 1155.7 181.7 1200 195.8C1244.3 210 1288.7 221 1333.2 227.8C1377.7 234.7 1422.3 237.3 1466.8 238.3C1511.3 239.3 1555.7 238.7 1600 234.7C1644.3 230.7 1688.7 223.3 1733.2 206.8C1777.7 190.3 1822.3 164.7 1866.8 161.8C1911.3 159 1955.7 179 1977.8 189L2000 199L2000 112L1977.8 110.2C1955.7 108.3 1911.3 104.7 1866.8 103.3C1822.3 102 1777.7 103 1733.2 111.7C1688.7 120.3 1644.3 136.7 1600 139.3C1555.7 142 1511.3 131 1466.8 126C1422.3 121 1377.7 122 1333.2 128C1288.7 134 1244.3 145 1200 139.5C1155.7 134 1111.3 112 1066.8 110.7C1022.3 109.3 977.7 128.7 933.2 136C888.7 143.3 844.3 138.7 800 128C755.7 117.3 711.3 100.7 666.8 94.7C622.3 88.7 577.7 93.3 533.2 105.8C488.7 118.3 444.3 138.7 400 141.5C355.7 144.3 311.3 129.7 266.8 120C222.3 110.3 177.7 105.7 133.2 106.5C88.7 107.3 44.3 113.7 22.2 116.8L0 120Z" fill="#004955"></path><path d="M0 276L22.2 276C44.3 276 88.7 276 133.2 276C177.7 276 222.3 276 266.8 276C311.3 276 355.7 276 400 276C444.3 276 488.7 276 533.2 276C577.7 276 622.3 276 666.8 276C711.3 276 755.7 276 800 276C844.3 276 888.7 276 933.2 276C977.7 276 1022.3 276 1066.8 276C1111.3 276 1155.7 276 1200 276C1244.3 276 1288.7 276 1333.2 276C1377.7 276 1422.3 276 1466.8 276C1511.3 276 1555.7 276 1600 276C1644.3 276 1688.7 276 1733.2 276C1777.7 276 1822.3 276 1866.8 276C1911.3 276 1955.7 276 1977.8 276L2000 276L2000 197L1977.8 187C1955.7 177 1911.3 157 1866.8 159.8C1822.3 162.7 1777.7 188.3 1733.2 204.8C1688.7 221.3 1644.3 228.7 1600 232.7C1555.7 236.7 1511.3 237.3 1466.8 236.3C1422.3 235.3 1377.7 232.7 1333.2 225.8C1288.7 219 1244.3 208 1200 193.8C1155.7 179.7 1111.3 162.3 1066.8 168.8C1022.3 175.3 977.7 205.7 933.2 212C888.7 218.3 844.3 200.7 800 187.8C755.7 175 711.3 167 666.8 174C622.3 181 577.7 203 533.2 208.8C488.7 214.7 444.3 204.3 400 191C355.7 177.7 311.3 161.3 266.8 158.2C222.3 155 177.7 165 133.2 174.2C88.7 183.3 44.3 191.7 22.2 195.8L0 200Z" fill="#0e141b"></path></svg>